<svg width="34" height="35" viewBox="0 0 34 35" fill="none" xmlns="http://www.w3.org/2000/svg">
<g clip-path="url(#clip0)">
<path d="M33.9837 17.724C33.9837 16.2984 33.8681 15.258 33.6177 14.1792H17.3386V20.6137H26.8941C26.7015 22.2128 25.6612 24.6209 23.3493 26.2391L23.3169 26.4545L28.4641 30.442L28.8207 30.4775C32.0957 27.4529 33.9837 23.0026 33.9837 17.724Z" fill="#4285F4"/>
<path d="M17.3386 34.6774C22.02 34.6774 25.9501 33.1361 28.8207 30.4776L23.3493 26.2391C21.8852 27.2602 19.9201 27.973 17.3386 27.973C12.7535 27.973 8.862 24.9484 7.47477 20.7679L7.27144 20.7852L1.91936 24.9272L1.84937 25.1218C4.70058 30.7857 10.5572 34.6774 17.3386 34.6774Z" fill="#34A853"/>
<path d="M7.47482 20.768C7.10879 19.6891 6.89695 18.5331 6.89695 17.3387C6.89695 16.1442 7.10879 14.9884 7.45556 13.9095L7.44587 13.6798L2.02672 9.47119L1.84941 9.55553C0.674289 11.9059 0 14.5453 0 17.3387C0 20.1322 0.674289 22.7714 1.84941 25.1218L7.47482 20.768Z" fill="#FBBC05"/>
<path d="M17.3386 6.70424C20.5944 6.70424 22.7906 8.11059 24.0429 9.28585L28.9362 4.50805C25.9309 1.71461 22.02 0 17.3386 0C10.5572 0 4.70058 3.89154 1.84937 9.55546L7.45551 13.9095C8.862 9.72891 12.7535 6.70424 17.3386 6.70424Z" fill="#EB4335"/>
</g>
<defs>
<clipPath id="clip0">
<rect width="34" height="34.7969" fill="white"/>
</clipPath>
</defs>
</svg>
