<svg width="139" height="34" viewBox="0 0 139 34" fill="none" xmlns="http://www.w3.org/2000/svg">
<path d="M14.6278 0.715871L7.05685 33.6568H0.971488L8.57105 0.715871H14.6278ZM24.8962 28.2C22.4773 28.2 20.4774 27.6381 18.8966 26.5144C17.3347 25.3716 16.4872 23.705 16.3539 21.5147H23.0963C23.1916 22.6765 23.7058 23.2574 24.6391 23.2574C24.9819 23.2574 25.2676 23.1812 25.4962 23.0289C25.7438 22.8574 25.8676 22.6003 25.8676 22.2575C25.8676 21.7813 25.6105 21.4004 25.0962 21.1147C24.5819 20.8099 23.782 20.4671 22.6963 20.0862C21.4012 19.6291 20.3251 19.1815 19.468 18.7434C18.6299 18.3053 17.9061 17.6673 17.2967 16.8292C16.6872 15.9912 16.3919 14.915 16.411 13.6008C16.411 12.2866 16.7443 11.1724 17.4109 10.2582C18.0966 9.32489 19.0204 8.62017 20.1822 8.14401C21.3631 7.66785 22.6868 7.42977 24.1534 7.42977C26.6294 7.42977 28.5912 8.00116 30.0388 9.14395C31.5054 10.2867 32.2767 11.8962 32.3529 13.9722H25.5247C25.5057 13.4008 25.3629 12.9913 25.0962 12.7437C24.8296 12.4961 24.5058 12.3723 24.1248 12.3723C23.8582 12.3723 23.6391 12.4676 23.4677 12.658C23.2963 12.8295 23.2106 13.0771 23.2106 13.4008C23.2106 13.858 23.4582 14.2389 23.9534 14.5436C24.4677 14.8293 25.2771 15.1817 26.3818 15.6007C27.658 16.0769 28.7055 16.534 29.5245 16.9721C30.3626 17.4101 31.0863 18.0196 31.6958 18.8005C32.3053 19.5814 32.6101 20.5623 32.6101 21.7432C32.6101 22.9812 32.3053 24.0955 31.6958 25.0859C31.0863 26.0573 30.2007 26.8191 29.0388 27.3715C27.877 27.9238 26.4961 28.2 24.8962 28.2ZM46.8378 28.2C44.9331 28.2 43.1809 27.7524 41.581 26.8572C40.0001 25.962 38.743 24.724 37.8097 23.1431C36.8765 21.5623 36.4098 19.7814 36.4098 17.8006C36.4098 15.8198 36.8765 14.0389 37.8097 12.458C38.743 10.8772 40.0001 9.64869 41.581 8.77255C43.1809 7.87736 44.9331 7.42977 46.8378 7.42977C48.7424 7.42977 50.4852 7.87736 52.0661 8.77255C53.6469 9.64869 54.8945 10.8772 55.8087 12.458C56.742 14.0389 57.2086 15.8198 57.2086 17.8006C57.2086 19.7814 56.742 21.5623 55.8087 23.1431C54.8945 24.724 53.6374 25.962 52.0375 26.8572C50.4566 27.7524 48.7234 28.2 46.8378 28.2ZM46.8378 22.286C48.0949 22.286 49.0662 21.8861 49.7519 21.0861C50.4376 20.2671 50.7804 19.1719 50.7804 17.8006C50.7804 16.4102 50.4376 15.315 49.7519 14.5151C49.0662 13.6961 48.0949 13.2866 46.8378 13.2866C45.5617 13.2866 44.5808 13.6961 43.8951 14.5151C43.2094 15.315 42.8666 16.4102 42.8666 17.8006C42.8666 19.1719 43.2094 20.2671 43.8951 21.0861C44.5808 21.8861 45.5617 22.286 46.8378 22.286ZM74.6101 24.943H67.8676L66.8677 28H60.2109L67.6105 7.7726H74.9243L82.2953 28H75.61L74.6101 24.943ZM73.0673 20.1719L71.2388 14.5436L69.4104 20.1719H73.0673ZM102.421 14.7151C102.421 15.9912 102.126 17.153 101.535 18.2006C100.945 19.2291 100.069 20.0481 98.9069 20.6576C97.7641 21.2671 96.3737 21.5718 94.7357 21.5718H92.2215V28H85.879V7.7726H94.7357C97.2117 7.7726 99.1069 8.40114 100.421 9.65821C101.754 10.9153 102.421 12.6009 102.421 14.7151ZM94.0214 16.5721C95.3356 16.5721 95.9927 15.9531 95.9927 14.7151C95.9927 13.477 95.3356 12.858 94.0214 12.858H92.2215V16.5721H94.0214ZM123.117 14.7151C123.117 15.9912 122.822 17.153 122.232 18.2006C121.641 19.2291 120.765 20.0481 119.603 20.6576C118.46 21.2671 117.07 21.5718 115.432 21.5718H112.918V28H106.575V7.7726H115.432C117.908 7.7726 119.803 8.40114 121.117 9.65821C122.451 10.9153 123.117 12.6009 123.117 14.7151ZM114.718 16.5721C116.032 16.5721 116.689 15.9531 116.689 14.7151C116.689 13.477 116.032 12.858 114.718 12.858H112.918V16.5721H114.718ZM138.471 0.715871L130.9 33.6568H124.815L132.414 0.715871H138.471Z" fill="#232323"/>
</svg>
